<?xml version="1.0" encoding="utf-8"?>
<!-- Generator: Adobe Illustrator 16.0.3, SVG Export Plug-In . SVG Version: 6.00 Build 0)  -->
<!DOCTYPE svg PUBLIC "-//W3C//DTD SVG 1.1//EN" "http://www.w3.org/Graphics/SVG/1.1/DTD/svg11.dtd">
<svg version="1.1" id="Ebene_1" xmlns="http://www.w3.org/2000/svg" xmlns:xlink="http://www.w3.org/1999/xlink" x="0px" y="0px"
	 width="369.8686523px" height="89.2265625px" viewBox="0 0 369.8686523 89.2265625"
	 enable-background="new 0 0 369.8686523 89.2265625" xml:space="preserve">
<g>
	<polygon fill-rule="evenodd" clip-rule="evenodd" fill="#FFFFFF" points="99.4389648,18.1025391 369.8686523,18.1025391 
		369.8686523,73.2949219 369.8686523,73.3046875 93.637207,73.3046875 93.6669922,73.0244141 	"/>
	<path fill="#4B4F54" d="M116.1430664,40.7358398l-3.2480469-9.3569336h-0.0629883
		c0.0893555,1.3916016,0.1308594,2.6938477,0.1308594,3.909668v5.4472656h-1.6601563v-11.203125h2.5805664l3.1123047,8.9121094
		h0.0444336l3.203125-8.9121094h2.5888672v11.203125h-1.7597656v-5.5415039c0-0.5566406,0.0131836-1.28125,0.0419922-2.1757813
		c0.0258789-0.8945313,0.0522461-1.4355469,0.0732422-1.6240234h-0.0629883l-3.362793,9.3413086H116.1430664z"/>
	<path fill="#4B4F54" d="M125.4838867,30.019043c0-0.3212891,0.0864258-0.5703125,0.2641602-0.7421875
		c0.175293-0.1757813,0.4262695-0.2617188,0.753418-0.2617188c0.3164063,0,0.5644531,0.0859375,0.7397461,0.2617188
		c0.175293,0.171875,0.2641602,0.4208984,0.2641602,0.7421875c0,0.3061523-0.0888672,0.546875-0.2641602,0.7246094
		c-0.175293,0.175293-0.4233398,0.2641602-0.7397461,0.2641602c-0.3271484,0-0.578125-0.0888672-0.753418-0.2641602
		C125.5703125,30.565918,125.4838867,30.3251953,125.4838867,30.019043 M127.3901367,40.7358398h-1.7988281v-8.4726563h1.7988281
		V40.7358398z"/>
	<path fill="#4B4F54" d="M133.1201172,39.4335938c0.4394531,0,0.878418-0.0683594,1.3178711-0.2070313v1.3598633
		c-0.1987305,0.0864258-0.4575195,0.159668-0.7714844,0.2172852c-0.3139648,0.0600586-0.6381836,0.0888672-0.9755859,0.0888672
		c-1.7050781,0-2.5571289-0.8994141-2.5571289-2.6987305v-4.565918h-1.1586914v-0.7973633l1.2421875-0.6591797l0.6118164-1.7910156
		h1.1113281v1.8828125h2.4135742v1.3647461h-2.4135742v4.5341797c0,0.4345703,0.1069336,0.753418,0.3242188,0.9599609
		C132.4819336,39.3291016,132.7666016,39.4335938,133.1201172,39.4335938"/>
	<path fill="#4B4F54" d="M137.4003906,35.003418c0,0.5307617,0.1386719,0.9389648,0.4106445,1.2241211
		c0.2744141,0.284668,0.6645508,0.4287109,1.1767578,0.4287109c1.0410156,0,1.5615234-0.5571289,1.5615234-1.668457
		c0-0.5493164-0.1279297-0.9750977-0.387207-1.2734375c-0.2587891-0.2983398-0.6484375-0.4472656-1.1743164-0.4472656
		c-0.5229492,0-0.9150391,0.1489258-1.1845703,0.4443359C137.5366211,34.0068359,137.4003906,34.4384766,137.4003906,35.003418
		 M136.6293945,42.0507813c0,0.3896484,0.1723633,0.6879883,0.5229492,0.8974609
		c0.3500977,0.2089844,0.8422852,0.3134766,1.4746094,0.3134766c0.980957,0,1.7104492-0.1411133,2.1889648-0.4208984
		c0.480957-0.2797852,0.7216797-0.6538086,0.7216797-1.1191406c0-0.3662109-0.1333008-0.6279297-0.3945313-0.784668
		c-0.2641602-0.1542969-0.753418-0.2329102-1.4672852-0.2329102h-1.3623047c-0.5151367,0-0.9257813,0.1206055-1.2294922,0.3637695
		C136.7807617,41.3110352,136.6293945,41.6381836,136.6293945,42.0507813z M143.284668,32.2631836v0.9882813l-1.4487305,0.2666016
		c0.1333008,0.1777344,0.2431641,0.3974609,0.3295898,0.6591797c0.0859375,0.2612305,0.1303711,0.5361328,0.1303711,0.8261719
		c0,0.8764648-0.3007813,1.5615234-0.9047852,2.0634766c-0.6015625,0.4995117-1.4301758,0.7504883-2.4868164,0.7504883
		c-0.2719727,0-0.5175781-0.0209961-0.7373047-0.0605469c-0.387207,0.2382813-0.5805664,0.5205078-0.5805664,0.8422852
		c0,0.1938477,0.0888672,0.3398438,0.2719727,0.4370117c0.1801758,0.0966797,0.5126953,0.1459961,0.9990234,0.1459961h1.4770508
		c0.934082,0,1.6450195,0.1987305,2.1289063,0.5966797c0.4868164,0.3974609,0.7270508,0.9726563,0.7270508,1.7231445
		c0,0.9594727-0.3950195,1.6967773-1.1870117,2.2172852c-0.7900391,0.5205078-1.9355469,0.7822266-3.4311523,0.7822266
		c-1.1533203,0-2.034668-0.2041016-2.6411133-0.6118164c-0.6069336-0.4082031-0.9125977-0.9912109-0.9125977-1.7446289
		c0-0.5229492,0.1645508-0.9594727,0.4941406-1.3154297c0.3295898-0.3525391,0.7924805-0.5986328,1.3833008-0.7373047
		c-0.2407227-0.1020508-0.4370117-0.2666016-0.59375-0.4941406s-0.2324219-0.465332-0.2324219-0.7167969
		c0-0.3164063,0.0883789-0.5830078,0.2666016-0.8027344c0.1801758-0.2197266,0.4443359-0.4365234,0.7973633-0.6508789
		c-0.4389648-0.190918-0.7949219-0.4995117-1.0693359-0.9257813c-0.2719727-0.4262695-0.4082031-0.9257813-0.4082031-1.4985352
		c0-0.9204102,0.2875977-1.6318359,0.8686523-2.1391602c0.5800781-0.5048828,1.4042969-0.7583008,2.4760742-0.7583008
		c0.2407227,0,0.4916992,0.015625,0.7558594,0.0498047s0.4604492,0.0708008,0.59375,0.1074219H143.284668z"/>
	<rect x="144.8588867" y="28.8110352" fill="#4B4F54" width="1.7993164" height="11.9248047"/>
	<path fill="#4B4F54" d="M149.1264648,30.019043c0-0.3212891,0.0864258-0.5703125,0.2646484-0.7421875
		c0.1748047-0.1757813,0.4257813-0.2617188,0.7529297-0.2617188c0.3164063,0,0.5644531,0.0859375,0.7397461,0.2617188
		c0.175293,0.171875,0.2641602,0.4208984,0.2641602,0.7421875c0,0.3061523-0.0888672,0.546875-0.2641602,0.7246094
		c-0.175293,0.175293-0.4233398,0.2641602-0.7397461,0.2641602c-0.3271484,0-0.578125-0.0888672-0.7529297-0.2641602
		C149.2128906,30.565918,149.1264648,30.3251953,149.1264648,30.019043 M151.0332031,40.7358398h-1.7993164v-8.4726563h1.7993164
		V40.7358398z"/>
	<path fill="#4B4F54" d="M156.9770508,33.4711914c-0.5727539,0-1.0302734,0.1801758-1.3754883,0.5439453
		c-0.3452148,0.3632813-0.5493164,0.894043-0.6171875,1.5898438h3.8442383
		c-0.0107422-0.7006836-0.1777344-1.2319336-0.5048828-1.5922852
		C157.996582,33.6513672,157.546875,33.4711914,156.9770508,33.4711914 M157.3066406,40.8925781
		c-1.3183594,0-2.3486328-0.3847656-3.0913086-1.1533203s-1.1137695-1.8305664-1.1137695-3.1796875
		c0-1.3833008,0.3452148-2.4741211,1.0327148-3.2661133c0.6904297-0.7924805,1.637207-1.1875,2.8427734-1.1875
		c1.1166992,0,2.0004883,0.340332,2.6489258,1.0200195s0.9726563,1.6162109,0.9726563,2.8085938v0.9726563h-5.6430664
		c0.0234375,0.8212891,0.2456055,1.4536133,0.6640625,1.8955078c0.4213867,0.4423828,1.0092773,0.6621094,1.7705078,0.6621094
		c0.4995117,0,0.9648438-0.0473633,1.3964844-0.1416016c0.4311523-0.09375,0.8969727-0.2504883,1.3911133-0.4702148v1.4643555
		c-0.4394531,0.2089844-0.8837891,0.3583984-1.3334961,0.4443359
		C158.3969727,40.8481445,157.8818359,40.8925781,157.3066406,40.8925781z"/>
	<path fill="#4B4F54" d="M165.9858398,39.4335938c0.7426758,0,1.28125-0.2094727,1.6162109-0.625
		c0.3374023-0.4160156,0.5126953-1.0908203,0.5229492-2.0268555v-0.2509766c0-1.0668945-0.175293-1.8256836-0.5229492-2.2749023
		c-0.3452148-0.4501953-0.8891602-0.675293-1.6293945-0.675293c-0.6352539,0-1.121582,0.2568359-1.4643555,0.769043
		c-0.3422852,0.5151367-0.5126953,1.2446289-0.5126953,2.1967773c0,0.9389648,0.1650391,1.6552734,0.4970703,2.1469727
		C164.824707,39.1875,165.3217773,39.4335938,165.9858398,39.4335938 M165.5048828,40.8925781
		c-1.0566406,0-1.8828125-0.3847656-2.4741211-1.1508789c-0.5932617-0.7661133-0.8891602-1.8408203-0.8891602-3.2270508
		c0-1.3911133,0.3007813-2.4736328,0.8999023-3.2475586c0.5986328-0.7739258,1.4301758-1.1611328,2.4921875-1.1611328
		c1.1137695,0,1.9609375,0.4106445,2.5444336,1.234375h0.0913086c-0.0864258-0.6069336-0.1303711-1.0878906-0.1303711-1.440918
		v-3.0883789h1.809082v11.9248047h-1.4091797L168.125,39.6269531h-0.0859375
		C167.4633789,40.4716797,166.6186523,40.8925781,165.5048828,40.8925781z"/>
	<path fill="#4B4F54" d="M176.3935547,30.019043c0-0.3212891,0.0864258-0.5703125,0.2641602-0.7421875
		c0.175293-0.1757813,0.4262695-0.2617188,0.753418-0.2617188c0.3164063,0,0.5644531,0.0859375,0.7397461,0.2617188
		c0.175293,0.171875,0.2641602,0.4208984,0.2641602,0.7421875c0,0.3061523-0.0888672,0.546875-0.2641602,0.7246094
		c-0.175293,0.175293-0.4233398,0.2641602-0.7397461,0.2641602c-0.3271484,0-0.578125-0.0888672-0.753418-0.2641602
		C176.4799805,30.565918,176.3935547,30.3251953,176.3935547,30.019043 M178.2998047,40.7358398h-1.7988281v-8.4726563h1.7988281
		V40.7358398z"/>
	<path fill="#4B4F54" d="M188.012207,40.7358398h-1.8066406v-5.2250977c0-0.6484375-0.1230469-1.1323242-0.3691406-1.4511719
		c-0.2431641-0.3193359-0.6279297-0.4790039-1.1474609-0.4790039c-0.6958008,0-1.203125,0.2250977-1.5273438,0.6777344
		c-0.324707,0.4521484-0.4868164,1.2055664-0.4868164,2.2563477v4.2211914h-1.8012695v-8.4726563h1.4091797l0.2539063,1.1083984
		h0.0913086c0.2353516-0.4052734,0.5756836-0.7163086,1.0224609-0.9360352
		c0.4472656-0.2197266,0.9389648-0.3295898,1.4750977-0.3295898c1.3017578,0,2.1650391,0.4448242,2.5888672,1.3334961h0.1230469
		c0.2509766-0.418457,0.6035156-0.7451172,1.0566406-0.9804688c0.4541016-0.2353516,0.9746094-0.3530273,1.5634766-0.3530273
		c1.0117188,0,1.7470703,0.2563477,2.2099609,0.7661133s0.6923828,1.2895508,0.6923828,2.3378906v5.5258789h-1.7988281v-5.2250977
		c0-0.6484375-0.1259766-1.1323242-0.3710938-1.4511719c-0.2490234-0.3193359-0.6328125-0.4790039-1.1533203-0.4790039
		c-0.7011719,0-1.2138672,0.2172852-1.5380859,0.6542969c-0.3242188,0.4365234-0.4863281,1.1083984-0.4863281,2.0107422V40.7358398z
		"/>
	<path fill="#4B4F54" d="M201.9741211,35.6518555v3.5463867h1.9433594c0.765625,0,1.34375-0.1464844,1.7363281-0.4394531
		c0.3896484-0.2954102,0.5859375-0.7583008,0.5859375-1.3911133c0-0.5830078-0.2021484-1.0151367-0.5996094-1.2949219
		s-1.0009766-0.4208984-1.8144531-0.4208984H201.9741211z M201.9741211,34.1616211h1.7597656
		c0.7666016,0,1.3261719-0.1206055,1.6767578-0.3637695c0.3525391-0.2431641,0.5283203-0.6538086,0.5283203-1.234375
		c0-0.5253906-0.1884766-0.9072266-0.5703125-1.1401367c-0.3789063-0.2353516-0.9833984-0.3530273-1.8095703-0.3530273h-1.5849609
		V34.1616211z M200.1411133,29.5327148h3.3232422c1.5429688,0,2.6572266,0.2250977,3.3447266,0.6748047
		c0.6884766,0.449707,1.0302734,1.1611328,1.0302734,2.1308594c0,0.6542969-0.1669922,1.1982422-0.5039063,1.6323242
		c-0.3378906,0.4335938-0.8242188,0.7084961-1.4570313,0.8208008v0.0756836
		c0.7871094,0.1494141,1.3652344,0.4418945,1.7363281,0.8789063c0.3691406,0.4370117,0.5546875,1.027832,0.5546875,1.7729492
		c0,1.0043945-0.3505859,1.7939453-1.0537109,2.3613281c-0.7011719,0.5703125-1.6787109,0.8554688-2.9296875,0.8554688h-4.0449219
		V29.5327148z"/>
	<path fill="#4B4F54" d="M216.2895508,40.7358398l-0.2539063-1.1088867h-0.0917969
		c-0.2509766,0.3945313-0.6064453,0.7036133-1.0693359,0.9282227c-0.4628906,0.2250977-0.9912109,0.3374023-1.5820313,0.3374023
		c-1.0283203,0-1.7939453-0.2563477-2.3017578-0.7661133c-0.5048828-0.5097656-0.7578125-1.2841797-0.7578125-2.3222656v-5.5410156
		h1.8144531v5.2246094c0,0.6484375,0.1337891,1.1347656,0.4003906,1.4589844c0.2636719,0.324707,0.6826172,0.4868164,1.25,0.4868164
		c0.7558594,0,1.3125-0.2250977,1.6650391-0.6777344c0.3564453-0.4521484,0.5341797-1.2104492,0.5341797-2.2719727v-4.2207031
		h1.8095703v8.4726563H216.2895508z"/>
	<path fill="#4B4F54" d="M227.7270508,40.7358398h-1.8066406v-5.2094727c0-0.6538086-0.1337891-1.1401367-0.3945313-1.4619141
		c-0.2646484-0.3217773-0.6826172-0.4838867-1.2558594-0.4838867c-0.7607422,0-1.3173828,0.2250977-1.6708984,0.675293
		c-0.3535156,0.4492188-0.5283203,1.2026367-0.5283203,2.2587891v4.2211914h-1.8017578v-8.4726563h1.4091797l0.2539063,1.1083984
		h0.0917969c0.2558594-0.4052734,0.6191406-0.7163086,1.0878906-0.9360352
		c0.4707031-0.2197266,0.9931641-0.3295898,1.5634766-0.3295898c2.0351563,0,3.0517578,1.0356445,3.0517578,3.1040039V40.7358398z"
		/>
	<path fill="#4B4F54" d="M233.5688477,39.4335938c0.7431641,0,1.2822266-0.2094727,1.6162109-0.625
		c0.3378906-0.4160156,0.5126953-1.0908203,0.5234375-2.0268555v-0.2509766c0-1.0668945-0.1757813-1.8256836-0.5234375-2.2749023
		c-0.3447266-0.4501953-0.8886719-0.675293-1.6289063-0.675293c-0.6357422,0-1.1220703,0.2568359-1.4648438,0.769043
		c-0.3417969,0.5151367-0.5117188,1.2446289-0.5117188,2.1967773c0,0.9389648,0.1640625,1.6552734,0.4960938,2.1469727
		C232.4086914,39.1875,232.9047852,39.4335938,233.5688477,39.4335938 M233.0883789,40.8925781
		c-1.0566406,0-1.8828125-0.3847656-2.4746094-1.1508789c-0.5927734-0.7661133-0.8886719-1.8408203-0.8886719-3.2270508
		c0-1.3911133,0.3007813-2.4736328,0.8994141-3.2475586s1.4306641-1.1611328,2.4921875-1.1611328
		c1.1142578,0,1.9619141,0.4106445,2.5449219,1.234375h0.0908203c-0.0859375-0.6069336-0.1298828-1.0878906-0.1298828-1.440918
		v-3.0883789h1.8085938v11.9248047h-1.4091797l-0.3134766-1.1088867h-0.0859375
		C235.0463867,40.4716797,234.2016602,40.8925781,233.0883789,40.8925781z"/>
	<path fill="#4B4F54" d="M243.3754883,33.4711914c-0.5722656,0-1.0302734,0.1801758-1.375,0.5439453
		c-0.3457031,0.3632813-0.5498047,0.894043-0.6171875,1.5898438h3.84375
		c-0.0107422-0.7006836-0.1777344-1.2319336-0.5048828-1.5922852
		C244.3950195,33.6513672,243.9458008,33.4711914,243.3754883,33.4711914 M243.7055664,40.8925781
		c-1.3183594,0-2.3486328-0.3847656-3.0917969-1.1533203c-0.7421875-0.7685547-1.1142578-1.8305664-1.1142578-3.1796875
		c0-1.3833008,0.3457031-2.4741211,1.0332031-3.2661133c0.6904297-0.7924805,1.6367188-1.1875,2.8427734-1.1875
		c1.1171875,0,2.0009766,0.340332,2.6494141,1.0200195s0.9726563,1.6162109,0.9726563,2.8085938v0.9726563h-5.6435547
		c0.0234375,0.8212891,0.2460938,1.4536133,0.6640625,1.8955078c0.421875,0.4423828,1.0097656,0.6621094,1.7705078,0.6621094
		c0.5,0,0.9648438-0.0473633,1.3964844-0.1416016c0.4316406-0.09375,0.8974609-0.2504883,1.3916016-0.4702148v1.4643555
		c-0.4394531,0.2089844-0.8837891,0.3583984-1.3339844,0.4443359
		C244.7954102,40.8481445,244.2807617,40.8925781,243.7055664,40.8925781z"/>
	<path fill="#4B4F54" d="M254.7407227,38.324707c0,0.8261719-0.3007813,1.4614258-0.9052734,1.9033203
		c-0.6015625,0.4418945-1.4667969,0.6645508-2.5888672,0.6645508c-1.1298828,0-2.0371094-0.1723633-2.7216797-0.5151367v-1.5561523
		c0.9960938,0.4604492,1.9248047,0.6904297,2.7822266,0.6904297c1.1083984,0,1.6630859-0.3344727,1.6630859-1.0039063
		c0-0.2143555-0.0605469-0.3925781-0.1835938-0.5361328c-0.1220703-0.144043-0.3242188-0.2905273-0.6064453-0.4443359
		c-0.2792969-0.1547852-0.671875-0.3271484-1.1708984-0.5234375c-0.9755859-0.3764648-1.6376953-0.7558594-1.9824219-1.1323242
		c-0.3447266-0.3789063-0.5175781-0.8706055-0.5175781-1.472168c0-0.7270508,0.2929688-1.2890625,0.8779297-1.6918945
		c0.5859375-0.3999023,1.3808594-0.6015625,2.3876953-0.6015625c0.9960938,0,1.9375,0.2016602,2.8271484,0.6069336
		l-0.5830078,1.3569336c-0.9130859-0.3789063-1.6816406-0.5673828-2.3066406-0.5673828
		c-0.9492188,0-1.4248047,0.2695313-1.4248047,0.8110352c0,0.2666016,0.1220703,0.4912109,0.3710938,0.6743164
		c0.2480469,0.1855469,0.7900391,0.4394531,1.6210938,0.7607422c0.7011719,0.2695313,1.2080078,0.5180664,1.5244141,0.7426758
		c0.3164063,0.2250977,0.5517578,0.4838867,0.7060547,0.7792969
		C254.6645508,37.5634766,254.7407227,37.9140625,254.7407227,38.324707"/>
	<path fill="#4B4F54" d="M258.6137695,40.7358398l-3.2167969-8.4726563h1.9013672l1.7207031,4.9262695
		c0.2978516,0.8266602,0.4755859,1.4960938,0.5361328,2.0058594h0.0625
		c0.0449219-0.3662109,0.2246094-1.0356445,0.5361328-2.0058594l1.7236328-4.9262695h1.9140625l-3.2324219,8.4726563H258.6137695z"
		/>
	<path fill="#4B4F54" d="M268.4516602,33.4711914c-0.5732422,0-1.0302734,0.1801758-1.3759766,0.5439453
		c-0.3447266,0.3632813-0.5488281,0.894043-0.6171875,1.5898438h3.8447266
		c-0.0107422-0.7006836-0.1777344-1.2319336-0.5048828-1.5922852
		C269.4711914,33.6513672,269.0209961,33.4711914,268.4516602,33.4711914 M268.7807617,40.8925781
		c-1.3183594,0-2.3486328-0.3847656-3.0908203-1.1533203c-0.7431641-0.7685547-1.1142578-1.8305664-1.1142578-3.1796875
		c0-1.3833008,0.3457031-2.4741211,1.0332031-3.2661133c0.6904297-0.7924805,1.6367188-1.1875,2.8427734-1.1875
		c1.1162109,0,2,0.340332,2.6494141,1.0200195c0.6474609,0.6796875,0.9716797,1.6162109,0.9716797,2.8085938v0.9726563h-5.6425781
		c0.0234375,0.8212891,0.2451172,1.4536133,0.6640625,1.8955078c0.4208984,0.4423828,1.0087891,0.6621094,1.7705078,0.6621094
		c0.4990234,0,0.9648438-0.0473633,1.3964844-0.1416016c0.4316406-0.09375,0.8964844-0.2504883,1.390625-0.4702148v1.4643555
		c-0.4394531,0.2089844-0.8837891,0.3583984-1.3330078,0.4443359
		C269.871582,40.8481445,269.355957,40.8925781,268.7807617,40.8925781z"/>
	<path fill="#4B4F54" d="M278.4174805,32.105957c0.3632813,0,0.6611328,0.0263672,0.8964844,0.0756836l-0.1777344,1.6791992
		c-0.2529297-0.0605469-0.5205078-0.0917969-0.7949219-0.0917969c-0.71875,0-1.3017578,0.2353516-1.7490234,0.7036133
		c-0.4472656,0.4707031-0.6699219,1.0825195-0.6699219,1.8330078v4.4301758h-1.8017578v-8.4726563h1.4101563l0.2373047,1.4902344
		h0.0917969c0.2802734-0.5048828,0.6484375-0.9077148,1.0986328-1.2026367
		C277.4106445,32.2548828,277.8969727,32.105957,278.4174805,32.105957"/>
	<path fill="#4B4F54" d="M284.7485352,33.5805664c-0.7275391,0-1.2470703,0.2148438-1.5664063,0.6411133
		c-0.3193359,0.4257813-0.4833984,1.1401367-0.4941406,2.1391602v0.1230469c0,1.0327148,0.1621094,1.777832,0.4892578,2.2407227
		c0.3261719,0.4628906,0.859375,0.6928711,1.5996094,0.6928711c0.6386719,0,1.1220703-0.253418,1.4521484-0.7583008
		c0.3291016-0.5043945,0.4941406-1.2368164,0.4941406-2.1914063
		C286.7231445,34.5429688,286.0639648,33.5805664,284.7485352,33.5805664 M285.2143555,32.105957
		c1.0585938,0,1.8828125,0.3847656,2.4707031,1.1508789c0.5908203,0.7661133,0.8837891,1.8408203,0.8837891,3.2270508
		c0,1.390625-0.2978516,2.4736328-0.8945313,3.2475586c-0.5986328,0.7739258-1.4277344,1.1611328-2.4892578,1.1611328
		c-1.0722656,0-1.90625-0.387207-2.4970703-1.1582031h-0.1230469l-0.3291016,1.0014648h-1.3496094V28.8110352h1.8017578v2.8349609
		c0,0.2089844-0.0107422,0.5229492-0.03125,0.9360352c-0.0214844,0.4130859-0.0371094,0.6772461-0.0478516,0.7895508h0.0791016
		C283.2573242,32.5268555,284.1030273,32.105957,285.2143555,32.105957z"/>
	<path fill="#4B4F54" d="M293.2817383,39.5117188c0.6533203,0,1.1787109-0.1826172,1.5742188-0.5493164
		c0.3945313-0.3657227,0.5927734-0.878418,0.5927734-1.5375977V36.6875l-1.0869141,0.046875
		c-0.8476563,0.0292969-1.4648438,0.1728516-1.8496094,0.4262695c-0.3867188,0.2514648-0.5800781,0.6411133-0.5800781,1.1611328
		c0,0.3793945,0.1123047,0.6723633,0.3369141,0.8789063C292.4946289,39.4072266,292.831543,39.5117188,293.2817383,39.5117188
		 M295.9614258,40.7358398l-0.3603516-1.1767578h-0.0605469c-0.4082031,0.5151367-0.8183594,0.8676758-1.234375,1.0537109
		c-0.4130859,0.1855469-0.9433594,0.2797852-1.5917969,0.2797852c-0.8320313,0-1.4833984-0.2250977-1.9482422-0.6748047
		c-0.46875-0.449707-0.7011719-1.0849609-0.7011719-1.9086914c0-0.8735352,0.3242188-1.5327148,0.9726563-1.9770508
		c0.6484375-0.4448242,1.6367188-0.6879883,2.9628906-0.7270508l1.4648438-0.0473633v-0.4521484
		c0-0.5415039-0.1289063-0.9467773-0.3798828-1.2158203c-0.2539063-0.2695313-0.6455078-0.402832-1.1767578-0.402832
		c-0.4335938,0-0.8496094,0.0629883-1.2470703,0.190918c-0.4003906,0.1279297-0.7822266,0.2797852-1.1503906,0.4521484
		l-0.5810547-1.2866211c0.4580078-0.2407227,0.9628906-0.4238281,1.5087891-0.5488281
		c0.546875-0.1254883,1.0625-0.1884766,1.5458984-0.1884766c1.0800781,0,1.8935547,0.2353516,2.4394531,0.7060547
		c0.5498047,0.4682617,0.8242188,1.2080078,0.8242188,2.2148438v5.7089844H295.9614258z"/>
	<path fill="#4B4F54" d="M307.2192383,40.7358398h-1.8066406v-5.2094727c0-0.6538086-0.1337891-1.1401367-0.3945313-1.4619141
		c-0.2646484-0.3217773-0.6826172-0.4838867-1.2558594-0.4838867c-0.7607422,0-1.3173828,0.2250977-1.6708984,0.675293
		c-0.3535156,0.4492188-0.5283203,1.2026367-0.5283203,2.2587891v4.2211914h-1.8017578v-8.4726563h1.4091797l0.2539063,1.1083984
		h0.0917969c0.2558594-0.4052734,0.6191406-0.7163086,1.0878906-0.9360352
		c0.4707031-0.2197266,0.9931641-0.3295898,1.5634766-0.3295898c2.0351563,0,3.0517578,1.0356445,3.0517578,3.1040039V40.7358398z"
		/>
	<path fill="#4B4F54" d="M313.0620117,39.4335938c0.7421875,0,1.28125-0.2094727,1.6152344-0.625
		c0.3378906-0.4160156,0.5126953-1.0908203,0.5234375-2.0268555v-0.2509766c0-1.0668945-0.1757813-1.8256836-0.5234375-2.2749023
		c-0.3447266-0.4501953-0.8886719-0.675293-1.6289063-0.675293c-0.6357422,0-1.1220703,0.2568359-1.4648438,0.769043
		c-0.3417969,0.5151367-0.5117188,1.2446289-0.5117188,2.1967773c0,0.9389648,0.1640625,1.6552734,0.4960938,2.1469727
		C311.9008789,39.1875,312.3969727,39.4335938,313.0620117,39.4335938 M312.5805664,40.8925781
		c-1.0566406,0-1.8828125-0.3847656-2.4736328-1.1508789c-0.59375-0.7661133-0.8896484-1.8408203-0.8896484-3.2270508
		c0-1.3911133,0.3007813-2.4736328,0.8994141-3.2475586s1.4306641-1.1611328,2.4921875-1.1611328
		c1.1142578,0,1.9619141,0.4106445,2.5449219,1.234375h0.0908203c-0.0859375-0.6069336-0.1298828-1.0878906-0.1298828-1.440918
		v-3.0883789h1.8085938v11.9248047h-1.4091797l-0.3134766-1.1088867h-0.0859375
		C314.5385742,40.4716797,313.6938477,40.8925781,312.5805664,40.8925781z"/>
	<path fill="#4B4F54" d="M114.4487305,60.8007813c0.7421875,0,1.2807617-0.2089844,1.6157227-0.625
		c0.3374023-0.4160156,0.5126953-1.0898438,0.5229492-2.0263672v-0.2509766c0-1.0673828-0.175293-1.8261719-0.5229492-2.2753906
		c-0.3452148-0.4492188-0.8891602-0.6748047-1.6293945-0.6748047c-0.6352539,0-1.121582,0.2568359-1.4643555,0.7695313
		c-0.3422852,0.5146484-0.512207,1.2441406-0.512207,2.1962891c0,0.9384766,0.1645508,1.6552734,0.496582,2.1464844
		C113.2875977,60.5556641,113.7841797,60.8007813,114.4487305,60.8007813 M113.9672852,62.2597656
		c-1.0566406,0-1.8828125-0.3837891-2.4741211-1.1503906c-0.5932617-0.7666016-0.8891602-1.8408203-0.8891602-3.2265625
		c0-1.3916016,0.3007813-2.4746094,0.8999023-3.2480469c0.5986328-0.7744141,1.4301758-1.1611328,2.4921875-1.1611328
		c1.1137695,0,1.9614258,0.4101563,2.5444336,1.234375h0.0913086c-0.0864258-0.6074219-0.1303711-1.0878906-0.1303711-1.4414063
		v-3.0878906h1.809082v11.9248047h-1.4091797l-0.3139648-1.109375h-0.0859375
		C115.9257813,61.8388672,115.0810547,62.2597656,113.9672852,62.2597656z"/>
	<path fill="#4B4F54" d="M124.2543945,54.8388672c-0.5722656,0-1.0297852,0.1806641-1.375,0.5439453
		s-0.5493164,0.8945313-0.6171875,1.5898438h3.84375c-0.0102539-0.7011719-0.1772461-1.2314453-0.5043945-1.5927734
		C125.2744141,55.0195313,124.824707,54.8388672,124.2543945,54.8388672 M124.5844727,62.2597656
		c-1.3183594,0-2.3486328-0.3837891-3.0913086-1.1533203c-0.7426758-0.7685547-1.1142578-1.8300781-1.1142578-3.1796875
		c0-1.3828125,0.3457031-2.4736328,1.0332031-3.265625c0.6904297-0.7929688,1.637207-1.1875,2.8422852-1.1875
		c1.1171875,0,2.0009766,0.3398438,2.6494141,1.0195313c0.6484375,0.6806641,0.9726563,1.6162109,0.9726563,2.8085938v0.9726563
		h-5.6430664c0.0234375,0.8212891,0.2456055,1.4541016,0.6640625,1.8964844
		c0.4208984,0.4414063,1.0092773,0.6611328,1.7705078,0.6611328c0.4995117,0,0.9648438-0.046875,1.3964844-0.140625
		c0.4311523-0.0947266,0.8969727-0.2509766,1.3911133-0.4707031v1.4638672
		c-0.4394531,0.2099609-0.8837891,0.3583984-1.3339844,0.4443359
		C125.6748047,62.2158203,125.159668,62.2597656,124.5844727,62.2597656z"/>
	<path fill="#4B4F54" d="M134.2207031,53.4736328c0.3632813,0,0.6616211,0.0263672,0.8969727,0.0761719l-0.1777344,1.6787109
		c-0.2539063-0.0605469-0.5205078-0.0917969-0.7949219-0.0917969c-0.7192383,0-1.3027344,0.2353516-1.7495117,0.703125
		c-0.4472656,0.4707031-0.6694336,1.0830078-0.6694336,1.8330078v4.4306641h-1.8017578v-8.4726563h1.4091797l0.2382813,1.4902344
		h0.0913086c0.2797852-0.5048828,0.6489258-0.9072266,1.0981445-1.203125
		C133.2138672,53.6230469,133.7001953,53.4736328,134.2207031,53.4736328"/>
	<path fill="#4B4F54" d="M148.1376953,56.4599609c0-2.6806641-1.2524414-4.0224609-3.7626953-4.0224609h-1.5849609v8.1279297
		h1.3022461C146.7885742,60.5654297,148.1376953,59.1982422,148.1376953,56.4599609 M150.0678711,56.3945313
		c0,1.8486328-0.5126953,3.2636719-1.5375977,4.2421875c-1.027832,0.9775391-2.5078125,1.4667969-4.4379883,1.4667969h-3.1323242
		v-11.203125h3.4619141c1.7836914,0,3.1694336,0.4814453,4.1606445,1.4404297
		C149.5737305,53.3007813,150.0678711,54.6533203,150.0678711,56.3945313z"/>
	<path fill="#4B4F54" d="M153.6293945,57.8515625c0,1.9560547,0.7216797,2.9335938,2.1679688,2.9335938
		c1.4331055,0,2.1469727-0.9775391,2.1469727-2.9335938c0-1.9355469-0.7192383-2.9033203-2.1601563-2.9033203
		c-0.7583008,0-1.3046875,0.2509766-1.6445313,0.7509766C153.7998047,56.1982422,153.6293945,56.9179688,153.6293945,57.8515625
		 M159.7983398,57.8515625c0,1.3857422-0.3554688,2.4658203-1.0644531,3.2421875
		c-0.7109375,0.7763672-1.6992188,1.1660156-2.965332,1.1660156c-0.7924805,0-1.4931641-0.1777344-2.0996094-0.5361328
		c-0.609375-0.3583984-1.0776367-0.8701172-1.4042969-1.5429688c-0.3271484-0.6689453-0.4892578-1.4453125-0.4892578-2.3291016
		c0-1.3759766,0.3530273-2.4482422,1.0561523-3.2197266c0.706543-0.7714844,1.7001953-1.1582031,2.9814453-1.1582031
		c1.2265625,0,2.1967773,0.3945313,2.9130859,1.1845703C159.4399414,55.4482422,159.7983398,56.5117188,159.7983398,57.8515625z"/>
	<rect x="161.8671875" y="50.1787109" fill="#4B4F54" width="1.7988281" height="11.9248047"/>
	<path fill="#4B4F54" d="M173.378418,62.1035156h-1.8071289v-5.2255859c0-0.6484375-0.1225586-1.1318359-0.3686523-1.4511719
		c-0.2431641-0.3193359-0.6274414-0.4785156-1.1479492-0.4785156c-0.6953125,0-1.203125,0.2255859-1.5273438,0.6777344
		s-0.4863281,1.2050781-0.4863281,2.2568359v4.2207031h-1.8017578v-8.4726563h1.409668l0.253418,1.1083984h0.0917969
		c0.2353516-0.4052734,0.5751953-0.7167969,1.0224609-0.9365234s0.9389648-0.3291016,1.4746094-0.3291016
		c1.3022461,0,2.1655273,0.4443359,2.5888672,1.3339844h0.1230469c0.2514648-0.4189453,0.6040039-0.7460938,1.0566406-0.9814453
		c0.4550781-0.234375,0.9755859-0.3525391,1.5639648-0.3525391c1.0117188,0,1.746582,0.2558594,2.2094727,0.765625
		c0.4628906,0.5107422,0.6928711,1.2900391,0.6928711,2.3388672v5.5253906h-1.7988281v-5.2255859
		c0-0.6484375-0.1254883-1.1318359-0.371582-1.4511719c-0.2485352-0.3193359-0.6328125-0.4785156-1.1533203-0.4785156
		c-0.7006836,0-1.2133789,0.2167969-1.5375977,0.6542969c-0.3242188,0.4365234-0.4863281,1.1083984-0.4863281,2.0107422V62.1035156z
		"/>
	<path fill="#4B4F54" d="M184.6098633,54.8388672c-0.5722656,0-1.0297852,0.1806641-1.375,0.5439453
		s-0.5493164,0.8945313-0.6171875,1.5898438h3.84375c-0.0097656-0.7011719-0.1777344-1.2314453-0.5048828-1.5927734
		C185.6303711,55.0195313,185.1801758,54.8388672,184.6098633,54.8388672 M184.9399414,62.2597656
		c-1.3183594,0-2.3486328-0.3837891-3.0913086-1.1533203c-0.7426758-0.7685547-1.1137695-1.8300781-1.1137695-3.1796875
		c0-1.3828125,0.3452148-2.4736328,1.0327148-3.265625c0.6904297-0.7929688,1.637207-1.1875,2.8422852-1.1875
		c1.1171875,0,2.0009766,0.3398438,2.6494141,1.0195313c0.6484375,0.6806641,0.9726563,1.6162109,0.9726563,2.8085938v0.9726563
		h-5.6430664c0.0234375,0.8212891,0.2456055,1.4541016,0.6640625,1.8964844
		c0.4213867,0.4414063,1.0092773,0.6611328,1.7709961,0.6611328c0.4990234,0,0.9648438-0.046875,1.3955078-0.140625
		c0.4316406-0.0947266,0.8974609-0.2509766,1.3916016-0.4707031v1.4638672
		c-0.4394531,0.2099609-0.8837891,0.3583984-1.3339844,0.4443359
		C186.0307617,62.2158203,185.5151367,62.2597656,184.9399414,62.2597656z"/>
	<path fill="#4B4F54" d="M193.4360352,60.8007813c0.4394531,0,0.8789063-0.0673828,1.3183594-0.2060547v1.359375
		c-0.1992188,0.0869141-0.4580078,0.1591797-0.7714844,0.2167969c-0.3144531,0.0605469-0.6386719,0.0888672-0.9755859,0.0888672
		c-1.7050781,0-2.5576172-0.8994141-2.5576172-2.6982422v-4.5654297h-1.1582031v-0.7978516l1.2421875-0.6591797l0.6113281-1.7910156
		h1.1113281v1.8828125h2.4140625v1.3652344h-2.4140625v4.5341797c0,0.4335938,0.1074219,0.7529297,0.3242188,0.9599609
		C192.7983398,60.6962891,193.0825195,60.8007813,193.4360352,60.8007813"/>
	<path fill="#4B4F54" d="M202.1420898,59.6923828c0,0.8261719-0.3007813,1.4619141-0.9052734,1.9033203
		c-0.6015625,0.4423828-1.4667969,0.6640625-2.5888672,0.6640625c-1.1298828,0-2.0371094-0.171875-2.7226563-0.5146484v-1.5566406
		c0.9960938,0.4609375,1.9248047,0.6914063,2.7822266,0.6914063c1.109375,0,1.6630859-0.3349609,1.6630859-1.0048828
		c0-0.2138672-0.0595703-0.3925781-0.1826172-0.5361328s-0.3242188-0.2900391-0.6064453-0.4443359
		c-0.2802734-0.1542969-0.671875-0.3271484-1.171875-0.5234375c-0.9755859-0.3759766-1.6367188-0.7558594-1.9824219-1.1318359
		c-0.3447266-0.3789063-0.5175781-0.8710938-0.5175781-1.4726563c0-0.7265625,0.2929688-1.2890625,0.8789063-1.6914063
		c0.5859375-0.4003906,1.3808594-0.6015625,2.3876953-0.6015625c0.9960938,0,1.9375,0.2011719,2.8271484,0.6064453
		L201.4194336,55.4375c-0.9121094-0.3789063-1.6806641-0.5673828-2.3056641-0.5673828
		c-0.9492188,0-1.4257813,0.2695313-1.4257813,0.8105469c0,0.2666016,0.1230469,0.4912109,0.3710938,0.6748047
		c0.2490234,0.1855469,0.7900391,0.4394531,1.6220703,0.7607422c0.7001953,0.2695313,1.2080078,0.5175781,1.5244141,0.7431641
		c0.3164063,0.2246094,0.5517578,0.4833984,0.7060547,0.7783203C202.065918,58.9316406,202.1420898,59.28125,202.1420898,59.6923828
		"/>
	<path fill="#4B4F54" d="M207.4995117,62.2597656c-1.28125,0-2.2539063-0.3740234-2.9208984-1.1240234
		c-0.6669922-0.7480469-0.9990234-1.8222656-0.9990234-3.2216797c0-1.4277344,0.3476563-2.5234375,1.0458984-3.2900391
		c0.6962891-0.765625,1.7021484-1.1503906,3.0205078-1.1503906c0.8945313,0,1.6972656,0.1669922,2.4140625,0.4990234
		l-0.5439453,1.4511719c-0.7607422-0.2949219-1.3886719-0.4443359-1.8857422-0.4443359
		c-1.4648438,0-2.1962891,0.9736328-2.1962891,2.9189453c0,0.9492188,0.1826172,1.6630859,0.5458984,2.1386719
		c0.3662109,0.4785156,0.9003906,0.7167969,1.6064453,0.7167969c0.7998047,0,1.5585938-0.1982422,2.2744141-0.5986328v1.5742188
		c-0.3212891,0.1904297-0.6669922,0.3271484-1.0302734,0.4082031
		C208.4643555,62.21875,208.0229492,62.2597656,207.4995117,62.2597656"/>
	<path fill="#4B4F54" d="M219.3120117,62.1035156h-1.8076172v-5.2099609c0-0.6533203-0.1328125-1.1396484-0.3945313-1.4609375
		c-0.2636719-0.3222656-0.6826172-0.484375-1.2548828-0.484375c-0.7558594,0-1.3125,0.2255859-1.6660156,0.6777344
		c-0.3554688,0.4521484-0.5332031,1.2109375-0.5332031,2.2724609v4.2050781h-1.8017578V50.1787109h1.8017578v3.0283203
		c0,0.4833984-0.0322266,1.0009766-0.0917969,1.5527344h0.1152344c0.2451172-0.4072266,0.5859375-0.7236328,1.0224609-0.9492188
		c0.4365234-0.2246094,0.9462891-0.3369141,1.5292969-0.3369141c2.0527344,0,3.0810547,1.0351563,3.0810547,3.1044922V62.1035156z"
		/>
	<path fill="#4B4F54" d="M225.1850586,54.8388672c-0.5722656,0-1.0302734,0.1806641-1.375,0.5439453
		c-0.3457031,0.3632813-0.5498047,0.8945313-0.6171875,1.5898438h3.84375
		c-0.0107422-0.7011719-0.1777344-1.2314453-0.5048828-1.5927734
		C226.2045898,55.0195313,225.7553711,54.8388672,225.1850586,54.8388672 M225.5151367,62.2597656
		c-1.3183594,0-2.3486328-0.3837891-3.0917969-1.1533203c-0.7421875-0.7685547-1.1142578-1.8300781-1.1142578-3.1796875
		c0-1.3828125,0.3457031-2.4736328,1.0332031-3.265625c0.6904297-0.7929688,1.6376953-1.1875,2.8427734-1.1875
		c1.1171875,0,2.0009766,0.3398438,2.6494141,1.0195313c0.6484375,0.6806641,0.9726563,1.6162109,0.9726563,2.8085938v0.9726563
		h-5.6435547c0.0234375,0.8212891,0.2460938,1.4541016,0.6640625,1.8964844
		c0.4208984,0.4414063,1.0097656,0.6611328,1.7705078,0.6611328c0.5,0,0.9648438-0.046875,1.3964844-0.140625
		c0.4316406-0.0947266,0.8974609-0.2509766,1.3916016-0.4707031v1.4638672
		c-0.4394531,0.2099609-0.8837891,0.3583984-1.3339844,0.4443359
		C226.6049805,62.2158203,226.0893555,62.2597656,225.5151367,62.2597656z"/>
	<path fill="#4B4F54" d="M235.1508789,53.4736328c0.3632813,0,0.6621094,0.0263672,0.8974609,0.0761719l-0.1777344,1.6787109
		c-0.2539063-0.0605469-0.5205078-0.0917969-0.7949219-0.0917969c-0.7197266,0-1.3027344,0.2353516-1.75,0.703125
		c-0.4472656,0.4707031-0.6689453,1.0830078-0.6689453,1.8330078v4.4306641h-1.8017578v-8.4726563h1.4091797l0.2382813,1.4902344
		h0.0908203c0.2802734-0.5048828,0.6484375-0.9072266,1.0986328-1.203125
		C234.144043,53.6230469,234.6303711,53.4736328,235.1508789,53.4736328"/>
	<path fill="#4B4F54" d="M247.6772461,62.1035156l-0.2539063-1.109375h-0.0917969
		c-0.2509766,0.3945313-0.6064453,0.7041016-1.0693359,0.9287109s-0.9912109,0.3369141-1.5820313,0.3369141
		c-1.0273438,0-1.7939453-0.2558594-2.3007813-0.765625c-0.5048828-0.5097656-0.7587891-1.2841797-0.7587891-2.3222656v-5.5410156
		h1.8154297v5.2246094c0,0.6484375,0.1328125,1.1347656,0.3994141,1.4589844
		c0.2646484,0.3242188,0.6826172,0.4863281,1.25,0.4863281c0.7558594,0,1.3125-0.2246094,1.6660156-0.6767578
		c0.3554688-0.453125,0.5332031-1.2109375,0.5332031-2.2724609v-4.2207031h1.8095703v8.4726563H247.6772461z"/>
	<path fill="#4B4F54" d="M259.1157227,62.1035156h-1.8076172v-5.2099609c0-0.6533203-0.1328125-1.1396484-0.3945313-1.4609375
		c-0.2646484-0.3222656-0.6826172-0.484375-1.2548828-0.484375c-0.7617188,0-1.3183594,0.2255859-1.671875,0.6748047
		c-0.3525391,0.4492188-0.5283203,1.203125-0.5283203,2.2597656v4.2207031h-1.8017578v-8.4726563h1.4101563l0.2529297,1.1083984
		h0.0917969c0.2568359-0.4052734,0.6201172-0.7167969,1.0878906-0.9365234
		c0.4707031-0.2197266,0.9941406-0.3291016,1.5644531-0.3291016c2.0341797,0,3.0517578,1.0351563,3.0517578,3.1044922V62.1035156z"
		/>
	<path fill="#4B4F54" d="M264.9575195,60.8007813c0.7421875,0,1.28125-0.2089844,1.6162109-0.625
		c0.3369141-0.4160156,0.5117188-1.0898438,0.5224609-2.0263672v-0.2509766c0-1.0673828-0.1748047-1.8261719-0.5224609-2.2753906
		c-0.3457031-0.4492188-0.8896484-0.6748047-1.6298828-0.6748047c-0.6347656,0-1.1210938,0.2568359-1.4638672,0.7695313
		c-0.3427734,0.5146484-0.5126953,1.2441406-0.5126953,2.1962891c0,0.9384766,0.1650391,1.6552734,0.4970703,2.1464844
		C263.7963867,60.5556641,264.2924805,60.8007813,264.9575195,60.8007813 M264.4760742,62.2597656
		c-1.0566406,0-1.8828125-0.3837891-2.4736328-1.1503906c-0.59375-0.7666016-0.8896484-1.8408203-0.8896484-3.2265625
		c0-1.3916016,0.3007813-2.4746094,0.9003906-3.2480469c0.5986328-0.7744141,1.4296875-1.1611328,2.4921875-1.1611328
		c1.1132813,0,1.9609375,0.4101563,2.5439453,1.234375h0.0917969c-0.0869141-0.6074219-0.1308594-1.0878906-0.1308594-1.4414063
		v-3.0878906h1.8095703v11.9248047h-1.4091797l-0.3144531-1.109375h-0.0859375
		C266.4350586,61.8388672,265.590332,62.2597656,264.4760742,62.2597656z"/>
	<path fill="#4B4F54" d="M280.6030273,48.7978516c0-0.3164063,0.0830078-0.5439453,0.2558594-0.6855469
		c0.1699219-0.1376953,0.3798828-0.2089844,0.625-0.2089844c0.2695313,0,0.4863281,0.078125,0.6513672,0.2382813
		c0.1621094,0.15625,0.2431641,0.3759766,0.2431641,0.65625c0,0.2744141-0.0839844,0.4941406-0.2509766,0.6533203
		c-0.1699219,0.1601563-0.3847656,0.2412109-0.6435547,0.2412109c-0.2451172,0-0.4550781-0.0732422-0.625-0.2226563
		C280.6860352,49.3232422,280.6030273,49.0986328,280.6030273,48.7978516 M277.590332,48.7978516
		c0-0.3164063,0.0839844-0.5439453,0.2568359-0.6855469c0.1699219-0.1376953,0.3789063-0.2089844,0.625-0.2089844
		c0.2685547,0,0.4853516,0.078125,0.6455078,0.2382813c0.1621094,0.15625,0.2402344,0.3759766,0.2402344,0.65625
		c0,0.2695313-0.0810547,0.4863281-0.2431641,0.6484375c-0.1640625,0.1650391-0.3789063,0.2460938-0.6425781,0.2460938
		c-0.2460938,0-0.4550781-0.0732422-0.625-0.2226563C277.6743164,49.3232422,277.590332,49.0986328,277.590332,48.7978516z
		 M284.4389648,50.9003906v7.2519531c0,0.8261719-0.1777344,1.5498047-0.5332031,2.1728516
		c-0.3535156,0.6191406-0.8681641,1.0976563-1.5380859,1.4326172c-0.671875,0.3349609-1.4746094,0.5019531-2.4101563,0.5019531
		c-1.3886719,0-2.46875-0.3681641-3.2382813-1.1035156c-0.7714844-0.7373047-1.1582031-1.7460938-1.1582031-3.0361328v-7.2197266
		h1.8388672v7.0869141c0,0.9228516,0.2138672,1.6054688,0.6435547,2.0449219
		c0.4287109,0.4394531,1.0869141,0.6591797,1.9765625,0.6591797c1.7255859,0,2.5888672-0.9082031,2.5888672-2.7197266v-7.0712891
		H284.4389648z"/>
	<path fill="#4B4F54" d="M290.9770508,54.9482422c-0.7275391,0-1.2480469,0.2148438-1.5664063,0.640625
		c-0.3193359,0.4267578-0.484375,1.140625-0.4941406,2.1396484v0.1230469c0,1.0322266,0.1621094,1.7783203,0.4882813,2.2412109
		c0.3271484,0.4628906,0.8603516,0.6923828,1.6005859,0.6923828c0.6386719,0,1.1220703-0.2539063,1.4511719-0.7578125
		c0.3300781-0.5048828,0.4941406-1.2373047,0.4941406-2.1923828
		C292.9506836,55.9111328,292.2924805,54.9482422,290.9770508,54.9482422 M291.4418945,53.4736328
		c1.0595703,0,1.8828125,0.3847656,2.4716797,1.1503906c0.5908203,0.7666016,0.8837891,1.8408203,0.8837891,3.2275391
		c0,1.390625-0.2978516,2.4736328-0.8945313,3.2470703c-0.5986328,0.7744141-1.4277344,1.1611328-2.4892578,1.1611328
		c-1.0722656,0-1.90625-0.3867188-2.4970703-1.1582031h-0.1230469l-0.3300781,1.0019531h-1.3486328V50.1787109h1.8017578v2.8349609
		c0,0.2089844-0.0107422,0.5224609-0.0322266,0.9355469c-0.0205078,0.4130859-0.0361328,0.6777344-0.046875,0.7900391h0.0791016
		C289.4858398,53.8945313,290.3305664,53.4736328,291.4418945,53.4736328z"/>
	<path fill="#4B4F54" d="M300.2602539,54.8388672c-0.5732422,0-1.0302734,0.1806641-1.3759766,0.5439453
		c-0.3447266,0.3632813-0.5488281,0.8945313-0.6171875,1.5898438h3.8447266
		c-0.0107422-0.7011719-0.1777344-1.2314453-0.5048828-1.5927734
		C301.2797852,55.0195313,300.8295898,54.8388672,300.2602539,54.8388672 M300.5893555,62.2597656
		c-1.3173828,0-2.3486328-0.3837891-3.0908203-1.1533203c-0.7421875-0.7685547-1.1142578-1.8300781-1.1142578-3.1796875
		c0-1.3828125,0.3457031-2.4736328,1.0332031-3.265625c0.6904297-0.7929688,1.6367188-1.1875,2.8427734-1.1875
		c1.1162109,0,2,0.3398438,2.6494141,1.0195313c0.6474609,0.6806641,0.9726563,1.6162109,0.9726563,2.8085938v0.9726563h-5.6435547
		c0.0234375,0.8212891,0.2451172,1.4541016,0.6640625,1.8964844c0.4208984,0.4414063,1.0097656,0.6611328,1.7705078,0.6611328
		c0.4990234,0,0.9648438-0.046875,1.3964844-0.140625c0.4316406-0.0947266,0.8974609-0.2509766,1.390625-0.4707031v1.4638672
		c-0.4384766,0.2099609-0.8837891,0.3583984-1.3330078,0.4443359
		C301.6801758,62.2158203,301.1645508,62.2597656,300.5893555,62.2597656z"/>
	<path fill="#4B4F54" d="M310.2260742,53.4736328c0.3632813,0,0.6621094,0.0263672,0.8964844,0.0761719l-0.1777344,1.6787109
		c-0.2529297-0.0605469-0.5205078-0.0917969-0.7949219-0.0917969c-0.71875,0-1.3017578,0.2353516-1.7490234,0.703125
		c-0.4472656,0.4707031-0.6699219,1.0830078-0.6699219,1.8330078v4.4306641h-1.8017578v-8.4726563h1.4101563l0.2373047,1.4902344
		h0.0917969c0.2802734-0.5048828,0.6484375-0.9072266,1.0986328-1.203125
		C309.2192383,53.6230469,309.7055664,53.4736328,310.2260742,53.4736328"/>
	<path fill="#4B4F54" d="M318.3901367,59.6923828c0,0.8261719-0.3007813,1.4619141-0.9042969,1.9033203
		c-0.6015625,0.4423828-1.4677734,0.6640625-2.5888672,0.6640625c-1.1298828,0-2.0371094-0.171875-2.7226563-0.5146484v-1.5566406
		c0.9960938,0.4609375,1.9248047,0.6914063,2.7822266,0.6914063c1.109375,0,1.6630859-0.3349609,1.6630859-1.0048828
		c0-0.2138672-0.0595703-0.3925781-0.1826172-0.5361328s-0.3242188-0.2900391-0.6064453-0.4443359
		c-0.2802734-0.1542969-0.6728516-0.3271484-1.171875-0.5234375c-0.9755859-0.3759766-1.6367188-0.7558594-1.9824219-1.1318359
		c-0.3447266-0.3789063-0.5175781-0.8710938-0.5175781-1.4726563c0-0.7265625,0.2929688-1.2890625,0.8789063-1.6914063
		c0.5859375-0.4003906,1.3808594-0.6015625,2.3867188-0.6015625c0.9970703,0,1.9384766,0.2011719,2.8271484,0.6064453
		L317.668457,55.4375c-0.9121094-0.3789063-1.6816406-0.5673828-2.3066406-0.5673828
		c-0.9492188,0-1.4248047,0.2695313-1.4248047,0.8105469c0,0.2666016,0.1230469,0.4912109,0.3710938,0.6748047
		c0.2480469,0.1855469,0.7900391,0.4394531,1.6210938,0.7607422c0.7011719,0.2695313,1.2089844,0.5175781,1.5253906,0.7431641
		c0.3154297,0.2246094,0.5517578,0.4833984,0.7060547,0.7783203
		C318.3149414,58.9316406,318.3901367,59.28125,318.3901367,59.6923828"/>
	<path fill="#4B4F54" d="M323.7036133,54.8388672c-0.5722656,0-1.0292969,0.1806641-1.375,0.5439453
		c-0.3447266,0.3632813-0.5498047,0.8945313-0.6171875,1.5898438h3.84375
		c-0.0097656-0.7011719-0.1777344-1.2314453-0.5048828-1.5927734
		C324.7241211,55.0195313,324.2739258,54.8388672,323.7036133,54.8388672 M324.0336914,62.2597656
		c-1.3183594,0-2.3486328-0.3837891-3.0908203-1.1533203c-0.7431641-0.7685547-1.1142578-1.8300781-1.1142578-3.1796875
		c0-1.3828125,0.3447266-2.4736328,1.0332031-3.265625c0.6904297-0.7929688,1.6367188-1.1875,2.8417969-1.1875
		c1.1171875,0,2.0009766,0.3398438,2.6494141,1.0195313c0.6484375,0.6806641,0.9726563,1.6162109,0.9726563,2.8085938v0.9726563
		h-5.6435547c0.0244141,0.8212891,0.2460938,1.4541016,0.6650391,1.8964844
		c0.4208984,0.4414063,1.0087891,0.6611328,1.7705078,0.6611328c0.4990234,0,0.9648438-0.046875,1.3955078-0.140625
		c0.4316406-0.0947266,0.8974609-0.2509766,1.3916016-0.4707031v1.4638672
		c-0.4394531,0.2099609-0.8837891,0.3583984-1.3339844,0.4443359
		C325.1245117,62.2158203,324.6088867,62.2597656,324.0336914,62.2597656z"/>
	<path fill="#4B4F54" d="M332.5297852,60.8007813c0.4394531,0,0.8789063-0.0673828,1.3183594-0.2060547v1.359375
		c-0.1992188,0.0869141-0.4580078,0.1591797-0.7714844,0.2167969c-0.3134766,0.0605469-0.6386719,0.0888672-0.9755859,0.0888672
		c-1.7050781,0-2.5576172-0.8994141-2.5576172-2.6982422v-4.5654297h-1.1582031v-0.7978516l1.2421875-0.6591797l0.6113281-1.7910156
		h1.1113281v1.8828125h2.4140625v1.3652344h-2.4140625v4.5341797c0,0.4335938,0.1074219,0.7529297,0.3242188,0.9599609
		C331.8920898,60.6962891,332.1762695,60.8007813,332.5297852,60.8007813"/>
	<polygon fill="#4B4F54" points="341.2016602,62.1035156 334.7739258,62.1035156 334.7739258,60.9921875 339.0571289,55.0117188 
		335.034668,55.0117188 335.034668,53.6308594 341.0786133,53.6308594 341.0786133,54.8876953 336.8891602,60.7226563 
		341.2016602,60.7226563 	"/>
	<path fill="#4B4F54" d="M346.4106445,54.8388672c-0.5732422,0-1.0302734,0.1806641-1.3759766,0.5439453
		c-0.3447266,0.3632813-0.5488281,0.8945313-0.6171875,1.5898438h3.8447266
		c-0.0107422-0.7011719-0.1777344-1.2314453-0.5048828-1.5927734
		C347.4301758,55.0195313,346.9799805,54.8388672,346.4106445,54.8388672 M346.7397461,62.2597656
		c-1.3183594,0-2.3486328-0.3837891-3.0908203-1.1533203c-0.7431641-0.7685547-1.1142578-1.8300781-1.1142578-3.1796875
		c0-1.3828125,0.3457031-2.4736328,1.0332031-3.265625c0.6904297-0.7929688,1.6367188-1.1875,2.8427734-1.1875
		c1.1162109,0,2,0.3398438,2.6494141,1.0195313c0.6474609,0.6806641,0.9716797,1.6162109,0.9716797,2.8085938v0.9726563h-5.6425781
		c0.0234375,0.8212891,0.2451172,1.4541016,0.6640625,1.8964844c0.4208984,0.4414063,1.0087891,0.6611328,1.7705078,0.6611328
		c0.4990234,0,0.9648438-0.046875,1.3964844-0.140625c0.4316406-0.0947266,0.8964844-0.2509766,1.390625-0.4707031v1.4638672
		c-0.4394531,0.2099609-0.8837891,0.3583984-1.3330078,0.4443359
		C347.8305664,62.2158203,347.3149414,62.2597656,346.7397461,62.2597656z"/>
	<path fill="#4B4F54" d="M356.3764648,53.4736328c0.3632813,0,0.6611328,0.0263672,0.8964844,0.0761719l-0.1777344,1.6787109
		c-0.2539063-0.0605469-0.5205078-0.0917969-0.7949219-0.0917969c-0.71875,0-1.3017578,0.2353516-1.7490234,0.703125
		c-0.4472656,0.4707031-0.6699219,1.0830078-0.6699219,1.8330078v4.4306641h-1.8017578v-8.4726563h1.4101563l0.2373047,1.4902344
		h0.0917969c0.2802734-0.5048828,0.6484375-0.9072266,1.0986328-1.203125
		C355.3696289,53.6230469,355.855957,53.4736328,356.3764648,53.4736328"/>
	<polygon fill-rule="evenodd" clip-rule="evenodd" fill="#005EB8" points="84.3764648,74.5761719 92.2143555,0 8.7705078,0 
		0,83.4433594 55.0214844,89.2265625 56.2509766,77.5322266 	"/>
	<path fill="#FFFFFF" d="M71.625,24.8393555c0.081543-0.7744141,0.3632813-1.3442383,0.8515625-1.7084961
		c0.487793-0.3583984,1.0649414-0.5410156,1.7373047-0.5410156c0.7231445,0,1.2773438,0.1992188,1.6625977,0.5981445
		c0.3852539,0.4042969,0.5439453,0.9511719,0.4702148,1.6513672c-0.0712891,0.6777344-0.3500977,1.2192383-0.8256836,1.6235352
		c-0.4746094,0.3989258-1.0649414,0.5981445-1.7768555,0.5981445c-0.6723633,0-1.2114258-0.1821289-1.6235352-0.5410156
		C71.7089844,26.1552734,71.5454102,25.597168,71.625,24.8393555"/>
	<path fill="#FFFFFF" d="M64.3251953,24.8393555c0.0766602-0.7231445,0.3393555-1.2758789,0.7963867-1.668457
		c0.4624023-0.387207,1.0463867-0.5810547,1.7587891-0.5810547c0.734375,0,1.2880859,0.2050781,1.6611328,0.6147461
		c0.3725586,0.4101563,0.5258789,0.9570313,0.4545898,1.6347656c-0.0708008,0.6723633-0.3378906,1.2075195-0.8076172,1.6118164
		c-0.4638672,0.4047852-1.0546875,0.6098633-1.7783203,0.6098633c-0.7119141,0-1.2553711-0.1933594-1.6352539-0.5869141
		C64.3994141,26.0869141,64.2519531,25.5400391,64.3251953,24.8393555"/>
	<path fill="#FFFFFF" d="M79.8261719,29.5214844l-1.6601563,15.7949219
		c-0.1894531,1.7998047-0.7597656,3.3828125-1.7055664,4.7382813c-0.9516602,1.3623047-2.2226563,2.3984375-3.8256836,3.1220703
		c-1.6020508,0.7236328-3.4404297,1.0878906-5.5253906,1.0878906c-3.1328125,0-5.4858398-0.8027344-7.0537109-2.4150391
		c-1.5683594-1.6064453-2.203125-3.8046875-1.909668-6.6015625l1.6533203-15.7265625h5.1547852l-1.5703125,14.9404297
		c-0.1987305,1.8847656,0.0385742,3.2636719,0.6982422,4.140625c0.6645508,0.8828125,1.871582,1.3222656,3.6206055,1.3222656
		c1.6914063,0,2.9628906-0.4453125,3.8183594-1.328125c0.8564453-0.8828125,1.3842773-2.2724609,1.5830078-4.1630859
		l1.5673828-14.9121094H79.8261719z"/>
	<path fill="#FFFFFF" d="M55.2583008,41.4887695c-0.421875,4.0151367-1.8837891,7.0913086-4.3930664,9.2270508
		c-2.5141602,2.1357422-5.9243164,3.2070313-10.2416992,3.2070313h-6.9033203l2.5644531-24.4013672h7.6552734
		c3.9814453,0,6.9633789,1.0541992,8.9467773,3.1557617C54.8642578,34.7788086,55.6547852,37.7177734,55.2583008,41.4887695
		 M49.8735352,41.6196289c0.5512695-5.2402344-1.4863281-7.8603516-6.1113281-7.8603516h-2.7509766l-1.6704102,15.8920898h2.2211914
		C46.5405273,49.6513672,49.3110352,46.9736328,49.8735352,41.6196289z"/>
	<path fill="#FFFFFF" d="M14.9399414,29.5214844h7.5927734c3.4633789,0,5.9238281,0.4897461,7.3803711,1.4755859
		c1.4628906,0.9853516,2.0791016,2.5517578,1.8525391,4.7045898c-0.1533203,1.4580078-0.6210938,2.6538086-1.402832,3.5883789
		c-0.78125,0.934082-1.7519531,1.4980469-2.9052734,1.6855469l-0.0175781,0.1655273
		c1.5068359,0.3476563,2.5561523,0.9912109,3.1401367,1.9370117c0.5898438,0.9453125,0.7993164,2.2041016,0.6347656,3.7705078
		c-0.234375,2.2265625-1.2250977,3.9580078-2.9624023,5.2060547c-1.7373047,1.2470703-3.9838867,1.8681641-6.746582,1.8681641
		h-9.1303711L14.9399414,29.5214844z M19.0952148,39.1933594h3.0078125c1.4008789,0,2.4375-0.2167969,3.1152344-0.6499023
		c0.6728516-0.4379883,1.0615234-1.1557617,1.1669922-2.1582031c0.0986328-0.9399414-0.1733398-1.6064453-0.8134766-2.0166016
		c-0.6411133-0.4042969-1.7016602-0.609375-3.1826172-0.609375h-2.7226563L19.0952148,39.1933594z M18.6645508,43.2944336
		l-0.668457,6.3569336h3.3720703c1.4296875,0,2.5063477-0.2734375,3.2416992-0.8203125
		c0.7402344-0.5410156,1.1645508-1.3789063,1.2827148-2.5009766c0.2119141-2.0224609-1.1279297-3.0356445-4.0214844-3.0356445
		H18.6645508z"/>
</g>
</svg>
